<?xml version="1.0" standalone="no"?>
<!DOCTYPE svg PUBLIC "-//W3C//DTD SVG 20010904//EN"
 "http://www.w3.org/TR/2001/REC-SVG-20010904/DTD/svg10.dtd">
<svg version="1.0" xmlns="http://www.w3.org/2000/svg"
 width="500.000000pt" height="500.000000pt" viewBox="0 0 500.000000 500.000000"
 preserveAspectRatio="xMidYMid meet">

<g transform="translate(0.000000,500.000000) scale(0.100000,-0.100000)"
fill="#000000" stroke="none">
<path d="M1262 3078 l3 -512 165 -66 c330 -133 618 -270 783 -374 48 -30 87
-53 87 -52 0 7 -166 140 -241 194 -133 94 -330 209 -504 293 l-160 77 77 35
c154 71 131 72 265 -19 222 -151 457 -336 627 -493 77 -72 77 -71 -39 69 -265
318 -574 593 -852 760 -51 30 -93 58 -93 61 -1 19 260 100 373 117 l58 9 81
-91 c155 -176 404 -510 608 -816 96 -145 108 -160 85 -105 -84 207 -458 791
-769 1204 -14 19 -23 38 -19 41 13 11 281 67 578 121 154 28 282 53 284 55 2
2 -311 4 -697 4 l-702 0 2 -512z"/>
<path d="M2480 3464 c-102 -19 -265 -50 -363 -69 -98 -19 -181 -35 -184 -35
-3 0 8 -17 23 -37 16 -21 89 -123 162 -228 255 -363 471 -723 562 -936 24 -57
45 -106 46 -108 2 -2 27 16 57 40 76 61 321 248 385 293 28 21 52 41 52 46 0
4 -13 52 -29 106 l-30 99 34 79 c70 159 215 398 382 626 46 63 71 101 56 84
-155 -172 -558 -664 -742 -906 l-74 -98 -82 124 c-104 157 -226 306 -345 420
l-92 89 42 -7 c83 -13 293 -112 435 -205 l31 -20 104 104 105 105 -39 76 c-84
163 -255 395 -290 393 -12 0 -104 -16 -206 -35z"/>
<path d="M4033 1969 c-39 -11 -45 -39 -8 -39 l25 0 0 -203 0 -204 -25 -11
c-48 -22 -27 -32 65 -32 83 0 90 1 90 20 0 11 -7 20 -15 20 -11 0 -15 12 -15
50 0 69 19 65 70 -15 22 -37 47 -68 55 -71 25 -10 100 11 103 29 2 12 -3 17
-17 17 -13 0 -33 16 -52 43 -58 78 -58 79 -1 144 45 53 49 60 36 77 -11 16
-22 18 -68 13 -31 -3 -60 -8 -65 -12 -16 -9 -2 -33 21 -37 18 -3 16 -8 -22
-55 -23 -29 -46 -53 -51 -53 -5 0 -9 65 -9 148 0 132 -2 151 -18 165 -20 19
-50 20 -99 6z"/>
<path d="M2760 1916 c0 -8 11 -17 25 -20 l25 -6 0 -180 0 -179 -30 -16 c-60
-31 -37 -38 123 -33 161 5 202 15 239 62 39 48 15 129 -46 157 l-40 18 28 12
c31 14 56 56 56 92 0 33 -36 76 -76 93 -48 20 -304 20 -304 0z m255 -51 c45
-44 29 -108 -33 -125 -71 -19 -72 -18 -72 64 l0 75 33 4 c17 2 36 5 40 5 4 1
19 -9 32 -23z m-16 -176 c33 -12 61 -52 61 -89 0 -11 -11 -32 -25 -45 -19 -20
-34 -25 -75 -25 l-50 0 0 85 0 85 29 0 c15 0 42 -5 60 -11z"/>
<path d="M630 1906 c0 -8 10 -16 23 -18 21 -3 22 -7 25 -138 4 -183 -1 -216
-39 -235 -16 -9 -27 -20 -24 -25 4 -6 46 -10 95 -10 70 0 89 3 94 15 4 11 -3
17 -24 22 l-30 6 0 121 c0 66 -3 132 -6 146 -12 53 15 -8 66 -150 28 -80 55
-149 59 -153 5 -5 24 -5 44 -2 35 7 35 8 83 138 78 216 73 213 74 49 l0 -143
-30 -10 c-16 -6 -30 -17 -30 -25 0 -11 22 -14 110 -14 92 0 110 3 110 15 0 9
-12 18 -29 21 -37 8 -41 26 -41 214 l0 147 25 11 c46 21 27 32 -54 32 l-79 0
-52 -142 c-29 -79 -57 -154 -62 -168 -9 -23 -13 -16 -44 70 -18 52 -45 128
-60 168 l-26 72 -89 0 c-71 0 -89 -3 -89 -14z"/>
<path d="M1375 1813 c-35 -9 -87 -55 -102 -91 -20 -49 -13 -143 14 -180 35
-48 81 -72 137 -72 85 0 138 45 158 132 29 132 -79 242 -207 211z m79 -68 c40
-41 44 -176 6 -210 -30 -27 -68 -12 -87 32 -18 44 -14 152 6 177 17 20 55 21
75 1z"/>
<path d="M1653 1808 c-33 -7 -43 -14 -43 -29 0 -14 7 -19 25 -19 l25 0 0 -118
c0 -117 0 -119 -25 -130 -48 -22 -27 -32 70 -32 87 0 95 2 95 19 0 11 -9 23
-20 26 -19 6 -20 13 -18 103 l3 96 31 12 c26 11 35 10 53 -2 19 -14 21 -24 21
-114 0 -90 -2 -100 -20 -110 -37 -20 -10 -30 81 -30 73 0 89 3 89 15 0 9 -11
20 -24 26 -24 11 -24 16 -28 131 -3 112 -5 121 -27 139 -32 26 -77 24 -130 -6
-50 -29 -51 -29 -51 -12 0 18 -33 47 -51 46 -8 -1 -33 -5 -56 -11z"/>
<path d="M2145 1806 c-43 -18 -93 -79 -101 -121 -9 -50 1 -113 23 -144 24 -32
98 -71 135 -71 28 0 121 41 132 58 12 19 -11 33 -38 22 -65 -24 -126 -5 -151
46 -24 51 -14 57 77 49 73 -7 81 -5 102 15 20 18 22 27 16 56 -19 83 -112 126
-195 90z m79 -57 c36 -28 33 -45 -11 -53 -79 -13 -91 -2 -52 48 25 31 29 32
63 5z"/>
<path d="M3308 1802 c-37 -10 -70 -21 -74 -24 -3 -4 -3 -25 1 -47 6 -36 10
-41 34 -41 23 0 29 6 37 38 8 31 14 38 39 40 39 5 55 -19 55 -85 l0 -53 -70 0
c-57 0 -74 -4 -90 -20 -28 -28 -26 -81 3 -108 37 -35 70 -37 118 -9 l43 26 28
-24 29 -24 44 21 c51 25 58 45 18 50 l-28 3 -3 111 c-2 101 -5 113 -26 133
-32 30 -79 34 -158 13z m92 -232 c0 -25 -4 -30 -34 -36 -41 -7 -56 0 -56 26 0
23 26 39 63 40 23 0 27 -4 27 -30z"/>
<path d="M3592 1799 c-30 -12 -23 -33 12 -37 l27 -3 -3 -117 c-3 -110 -4 -118
-25 -127 -13 -5 -23 -15 -23 -22 0 -10 24 -13 90 -13 72 0 90 3 90 15 0 8 -9
19 -20 25 -18 10 -20 21 -20 110 l0 98 35 12 c25 8 40 8 55 0 18 -10 20 -20
20 -119 0 -88 -3 -110 -15 -115 -8 -3 -15 -10 -15 -16 0 -6 33 -10 85 -10 77
0 85 2 85 19 0 10 -8 21 -19 24 -17 4 -19 17 -22 122 -4 114 -5 118 -32 141
-37 32 -70 30 -128 -6 -43 -26 -49 -27 -49 -12 0 10 -5 23 -12 30 -14 14 -83
15 -116 1z"/>
<path d="M2350 1786 c0 -7 11 -21 23 -29 17 -11 36 -50 66 -136 37 -103 47
-122 67 -127 33 -9 18 -26 -49 -54 -29 -12 -53 -24 -55 -25 -2 -2 3 -16 12
-32 32 -59 31 -59 70 -29 88 66 127 129 173 276 20 63 44 122 54 132 35 31 23
38 -66 38 -67 0 -85 -3 -85 -14 0 -8 9 -18 20 -21 13 -4 19 -13 16 -23 -2 -9
-12 -52 -21 -94 -9 -43 -20 -78 -25 -78 -5 0 -13 21 -19 48 -5 26 -17 68 -24
94 -14 45 -14 48 4 53 10 4 19 13 19 21 0 11 -19 14 -90 14 -70 0 -90 -3 -90
-14z"/>
</g>
</svg>
